# xmcd
#
# Track frame offsets:
#	150
#	17603
#	38130
#	53179
#	68593
#	86161
#	99872
#	116486
#	131722
#	146211
#	169761
#
# Disc length: 2524 seconds
#
# Revision: 5
# Processed by: cddbd v1.5.2PL0 Copyright (c) Steve Scherf et al.
# Submitted via: EZCDAudioConverter 8.0.2.1
#
DISCID=9109da0b
DTITLE=ATRAÇÃO FONOGRÁFICA - CANTO SERTANEJO - 1996/2000 - OS GRANDES SUCESSOS
DTITLE=DO VINIL AGORA EM CD [CD ATR 12003) ATRAÇÃO
DYEAR=2000
DGENRE=SERTANEJO
TTITLE0=JEAN and JUNIOR - SECRETARIA DE SUCESSO (BY GILMAR SINISTRO)
TTITLE1=ATAIDE and ALEXANDRE - DOCES PALAVRAS (BY GILMAR SINISTRO)
TTITLE2=FELIPE and FALCÃO - HOJE NÃO É O NOSSO DIA (BY GILMAR SINISTRO)
TTITLE3=CESAR and PAULINHO - O MEU JEITO DE AMAR (BY GILMAR SINISTRO)
TTITLE4=CHICO REY and PARANÁ - QUEM SERÁ SEU OUTRO AMOR? (BY GILMAR SINISTRO)
TTITLE5=JOÃO PAULO and DANIEL - AOS TRANCOS E BARRANCOS (BY GILMAR SINISTRO)
TTITLE6=CHRYSTIAN and RALF - NOVA YORK (BY GILMAR SINISTRO)
TTITLE7=MATO GROSSO and MATHIAS - PONTO DE CHEGADA (BY GILMAR SINISTRO)
TTITLE8=GIAN and GIOVANI - AMANTE ANONIMO (BY GILMAR SINISTRO)
TTITLE9=SULA MIRANDA - LOBO AMANTE (BY GILMAR SINISTRO)
TTITLE10=MILIONARIO and JOSÉ RICO - SONHEI COM VOCÊ (BY GILMAR SINISTRO)
EXTD=
EXTT0=
EXTT1=
EXTT2=
EXTT3=
EXTT4=
EXTT5=
EXTT6=
EXTT7=
EXTT8=
EXTT9=
EXTT10=
PLAYORDER=
